<?xml version="1.0" encoding="utf-8"?>
<!-- Generator: Adobe Illustrator 22.1.0, SVG Export Plug-In . SVG Version: 6.00 Build 0)  -->
<svg version="1.1" xmlns="http://www.w3.org/2000/svg" xmlns:xlink="http://www.w3.org/1999/xlink" x="0px" y="0px"
	 viewBox="0 0 1280 1024" style="enable-background:new 0 0 1280 1024;" xml:space="preserve">
<style type="text/css">
	.st0{fill:none;stroke:#EFEFEF;stroke-width:15;stroke-linecap:round;stroke-linejoin:round;stroke-miterlimit:10;}
	.st1{display:none;}
	.st2{display:inline;fill:none;stroke:#D3D3D3;stroke-width:21;stroke-linecap:round;stroke-linejoin:round;stroke-miterlimit:10;}
</style>
<g id="base">
	<path class="st0" d="M211.2,561c-24,3.4-48.3,4.8-72.5,4.1 M215,614.3c-25.9,1.1-51.5,6.6-75.6,16.1c-0.1,0-0.1,0.1-0.2,0.1
		 M341.6,648.1c-57.9,37.2-114.5,76.6-169.6,117.9 M478.6,588.1c9.6-10.8,19.2-21.6,28.8-32.4c3.6-4,7.4-8.9,6.7-14.2
		c-0.7-5.1-5.7-8.8-10.8-9.7c-5.1-0.9-10.3,0.4-15.2,1.8c-51.7,14.4-99.9,41-139.4,77.3 M403.9,540.3c-0.3,27.3,3.7,54.6,11.9,80.7
		c2.1,6.8,4.8,13.9,10.7,18c4.4,3.1,9.9,3.9,15.2,4.4c16.1,1.5,32.5,0.4,48.2-3.3c4.4-1,9-2.4,12.5-5.2s5.9-7.7,4.6-12.1
		 M479.9,473.6c3.6,12.4,8,24.6,13,36.5 M526.3,505.9c-0.2-15.1-3.1-30.2-8.5-44.4 M619.2,492.4c1.5-1.1,1-3.6-0.5-4.7
		c-1.5-1.1-3.5-1.1-5.3-1.1c-9.8,0.1-19.7,0.2-29.5,0.2c2.4,0,4.8,0,7.2-0.1 M619.6,593.8c3,4.2,9.5,0.9,13.3-2.6
		c25.9-23.6,51.9-47.1,77.8-70.7 M796.8,553.8c-7-15.2-8.6-32.3-10.8-48.9c-4.8-36.4-13-72.4-24.3-107.4 M766.7,468.2
		c26.3-1.7,52.7-3.4,79-5.1c2.5-0.2,5.5-0.8,6.1-3.2 M914.2,362.7c-0.5-11.4-14.8-19.7-24.9-14.4 M873.6,402.8
		c1.8,10.2,5.1,20.2,9.8,29.4 M978.9,492.7c-1.6,1.7,2.8,2.1,4.2,0.2c18.9-24.8,20.3-58.3,21-89.5c0.4-20.7-0.4-44.4-16.4-57.6
		c-1.3-1.1-2.7-2.1-4.4-2.2c-2-0.2-3.9,0.8-5.7,1.7c-28,15.4-55.2,32.2-81.5,50.4c-4.9,3.4-10.3,9.6-6.7,14.4 M1125.5,448.6
		c0.2,3.7,0.4,7.4,0.6,11.1c6.8-60.4,3.4-121.9-10-181.2c-0.8-3.4-1.7-7-4.3-9.2c-3.6-3.1-9.1-2.6-13.7-1.3
		c-16.9,4.7-40.2,14.2-47.7,30c-0.9-2.7-1.8-5.3-2.7-8c3,39.2,2,78.8-2.8,117.8c2-8.5,2.8-17.3,2.4-26.1 M1074,360.4
		c26.7-0.1,53.5-1.4,80.1-4"/>
</g>
<g id="mask" class="st1">
	<path class="st2" d="M138.5,565.5l73-4l-72,69l75-16l-42,152l169-118l7-38c0,0,90-51,127-70s45-4,46,0s-42,52-42,52l-76-61
		c0,0-16,103,28,107s76-16,76-16s-51-182-33-147s18,35,18,35l25-49c0,0,13,35,9,44s57-22,57-22l36,3c0,0-11,110,1,116s90-82,90-82
		l51-123l42,161c0,0-76-76-42-90s90-9,90-9s-25-89,0-105s63-4,63,2s-41,41-41,41l10,35l6-30l94-59c0,0,70,85-23,167s84-224,84-224
		v131l15-131l48-25c0,0,41,88,22,198s-56-96-56-96l81-7"/>
</g>
</svg>
